<?xml version="1.0" standalone="no"?>
<!DOCTYPE svg PUBLIC "-//W3C//DTD SVG 20010904//EN"
 "http://www.w3.org/TR/2001/REC-SVG-20010904/DTD/svg10.dtd">
<svg version="1.0" xmlns="http://www.w3.org/2000/svg"
 width="137.000000pt" height="160.000000pt" viewBox="0 0 137.000000 160.000000"
 preserveAspectRatio="xMidYMid meet">

<g transform="translate(0.000000,160.000000) scale(0.100000,-0.100000)"
fill="#ffd53c" stroke="none">
<path d="M0 800 l0 -800 685 0 685 0 0 800 0 800 -685 0 -685 0 0 -800z m698
616 c-2 -23 -8 -31 -23 -31 -24 0 -34 48 -14 71 18 22 41 -2 37 -40z m-138
-46 c14 -26 -5 -36 -36 -19 -23 12 -32 38 -18 52 10 9 42 -10 54 -33z m300 27
c0 -19 -29 -57 -45 -57 -23 0 -27 18 -9 45 17 26 54 35 54 12z m-103 -88 c41
-13 99 -77 114 -127 l12 -40 41 19 c36 16 41 16 44 3 3 -10 11 -14 23 -11 18
5 19 -1 19 -86 l1 -92 31 -20 c19 -12 38 -36 47 -58 13 -34 12 -42 -3 -73 -9
-19 -30 -43 -46 -52 -28 -16 -30 -20 -30 -82 0 -53 -4 -69 -20 -83 -14 -11
-20 -29 -20 -56 0 -22 -6 -72 -14 -113 -30 -156 -83 -243 -142 -236 -37 4 -54
37 -54 106 0 58 -9 63 -60 37 -32 -17 -50 -43 -50 -73 0 -33 -38 -72 -71 -72
-53 0 -91 90 -111 264 -7 54 -17 100 -22 102 -6 1 -30 8 -53 14 -41 10 -43 13
-43 48 0 56 -9 78 -37 93 -33 18 -56 64 -57 118 -1 37 4 47 31 70 l31 26 -8
75 c-13 110 -13 123 5 116 10 -3 15 1 15 14 0 18 3 18 72 -6 39 -13 72 -24 73
-24 0 0 2 16 3 36 5 75 71 149 149 169 48 13 69 12 130 -6z"/>
<path d="M603 1259 c-47 -23 -83 -82 -83 -136 0 -28 3 -31 70 -51 l70 -21 90
37 c89 36 91 38 86 66 -9 42 -53 96 -92 112 -47 20 -92 17 -141 -7z"/>
<path d="M813 1047 c-67 -23 -124 -44 -127 -47 -8 -9 27 -440 36 -440 4 0 60
21 123 46 l115 46 0 56 c0 39 -5 61 -17 75 -13 13 -18 36 -18 72 0 36 5 59 18
72 21 24 26 164 5 162 -7 0 -68 -19 -135 -42z"/>
<path d="M353 1019 c4 -30 7 -66 7 -81 0 -18 7 -29 20 -33 63 -20 81 -108 35
-163 -18 -21 -25 -42 -25 -70 0 -23 3 -43 8 -45 4 -3 67 -21 141 -41 l134 -35
-6 62 c-4 34 -12 134 -18 222 l-12 161 -131 34 c-72 18 -137 36 -145 38 -12 4
-13 -5 -8 -49z"/>
<path d="M986 904 c-18 -18 -22 -89 -5 -100 17 -10 59 17 66 44 7 29 -11 72
-31 72 -8 0 -22 -7 -30 -16z"/>
<path d="M307 873 c-10 -10 -8 -72 3 -92 21 -41 72 -32 84 13 8 34 -2 54 -35
71 -31 17 -42 18 -52 8z"/>
<path d="M818 491 l-86 -39 -113 28 -112 29 6 -62 c8 -79 43 -193 62 -201 17
-6 20 -2 30 44 12 60 63 101 138 113 63 10 67 5 67 -85 0 -87 10 -97 43 -40
33 56 80 252 60 252 -4 0 -47 -18 -95 -39z"/>
</g>
</svg>
