<?xml version="1.0" standalone="no"?>
<!DOCTYPE svg PUBLIC "-//W3C//DTD SVG 20010904//EN"
 "http://www.w3.org/TR/2001/REC-SVG-20010904/DTD/svg10.dtd">
<svg version="1.0" xmlns="http://www.w3.org/2000/svg"
 width="395.000000pt" height="392.000000pt" viewBox="0 0 395.000000 392.000000"
 preserveAspectRatio="xMidYMid meet">

<g transform="translate(0.000000,392.000000) scale(0.100000,-0.100000)"
fill="#fff" stroke="none">
<path d="M0 1960 l0 -1960 1975 0 1975 0 0 1960 0 1960 -1975 0 -1975 0 0
-1960z m2173 1889 c192 -39 398 -144 607 -312 130 -103 522 -486 669 -652 224
-253 342 -454 403 -686 33 -125 32 -359 -1 -479 -52 -185 -136 -344 -285 -538
-110 -142 -625 -663 -766 -774 -327 -258 -579 -359 -870 -345 -208 10 -377 68
-585 201 -184 117 -507 409 -762 687 -272 298 -382 464 -458 692 -109 328 -56
646 161 972 95 143 184 246 424 489 425 431 633 593 894 696 175 69 383 87
569 49z" fill="#ffd53c"/>
<path d="M1850 3820 c-229 -32 -447 -140 -690 -343 -164 -137 -565 -539 -706
-709 -173 -208 -281 -414 -325 -623 -16 -75 -16 -271 0 -350 45 -218 151 -422
336 -645 111 -134 538 -564 675 -679 265 -223 479 -329 728 -361 224 -29 486
43 722 197 144 95 287 220 546 478 467 467 615 684 680 1005 24 121 15 312
-20 435 -51 176 -148 349 -301 540 -94 117 -497 530 -635 650 -238 207 -446
330 -643 380 -111 28 -268 38 -367 25z m148 -614 c-2 -23 -8 -31 -23 -31 -24
0 -34 48 -14 71 18 22 41 -2 37 -40z m-138 -46 c14 -26 -5 -36 -36 -19 -23 12
-32 38 -18 52 10 9 42 -10 54 -33z m300 27 c0 -19 -29 -57 -45 -57 -23 0 -27
18 -9 45 17 26 54 35 54 12z m-103 -88 c41 -13 99 -77 114 -127 l12 -40 41 19
c36 16 41 16 44 3 3 -10 11 -14 23 -11 18 5 19 -1 19 -86 l1 -92 31 -20 c19
-12 38 -36 47 -58 13 -34 12 -42 -3 -73 -9 -19 -30 -43 -46 -52 -28 -16 -30
-20 -30 -82 0 -53 -4 -69 -20 -83 -14 -11 -20 -29 -20 -56 0 -22 -6 -72 -14
-113 -30 -156 -83 -243 -142 -236 -37 4 -54 37 -54 106 0 58 -9 63 -60 37 -32
-17 -50 -43 -50 -73 0 -33 -38 -72 -71 -72 -53 0 -91 90 -111 264 -7 54 -17
100 -22 102 -6 1 -30 8 -53 14 -41 10 -43 13 -43 48 0 56 -9 78 -37 93 -33 18
-56 64 -57 118 -1 37 4 47 31 70 l31 26 -8 75 c-13 110 -13 123 5 116 10 -3
15 1 15 14 0 18 3 18 72 -6 39 -13 72 -24 73 -24 0 0 2 16 3 36 5 75 71 149
149 169 48 13 69 12 130 -6z m-895 -1471 c13 -11 135 -193 238 -358 l35 -55 3
98 c1 53 1 141 0 195 l-3 97 -35 0 c-24 0 -35 5 -35 15 0 12 17 15 95 15 78 0
95 -3 95 -15 0 -10 -10 -15 -32 -15 -18 -1 -34 -3 -37 -6 -3 -3 -7 -144 -10
-314 -5 -353 -3 -315 -15 -315 -8 0 -81 94 -81 104 0 8 -320 486 -325 486 -3
0 -5 -123 -5 -274 l0 -275 40 -3 c22 -2 41 -7 43 -13 1 -6 -39 -11 -100 -13
-68 -2 -103 1 -103 8 0 14 46 31 65 24 18 -7 17 -29 16 310 -1 278 -3 289 -42
279 -27 -8 -50 4 -43 22 5 12 26 15 113 15 71 0 112 -4 123 -12z m1837 6 c41
-7 30 -21 -19 -26 l-35 -3 -2 -275 c-1 -151 0 -285 3 -297 4 -19 11 -23 44
-23 38 0 55 -13 28 -22 -7 -2 -73 -4 -147 -3 -98 0 -135 3 -138 13 -3 8 8 12
35 12 37 0 40 2 45 33 7 36 2 486 -5 493 -4 4 -64 -182 -113 -351 -60 -207
-74 -234 -94 -183 -11 29 -79 246 -127 408 -20 69 -41 129 -45 135 -6 5 -8
-103 -7 -260 l3 -270 43 -3 c28 -2 42 -7 39 -15 -5 -15 -191 -17 -195 -2 -1 6
14 12 35 15 l38 5 0 294 0 295 -39 0 c-22 1 -41 7 -43 14 -4 9 24 12 116 12
l120 0 15 -52 c8 -29 27 -93 41 -143 14 -49 32 -114 41 -144 8 -29 18 -60 23
-68 11 -20 16 -6 73 197 5 19 14 49 20 65 5 17 12 41 15 55 7 36 31 88 43 92
18 6 155 7 189 2z m-1091 -21 c2 -9 -9 -13 -38 -13 -53 0 -56 20 38 -235 62
-166 74 -196 79 -192 4 5 118 340 138 405 6 20 3 22 -34 22 -42 0 -62 14 -35
24 9 3 54 6 100 6 66 0 84 -3 84 -14 0 -10 -13 -16 -36 -18 l-37 -3 -42 -125
c-23 -69 -61 -179 -84 -245 -23 -66 -52 -151 -65 -190 -13 -42 -27 -70 -36
-70 -11 0 -80 152 -80 178 0 4 -8 26 -18 50 -20 44 -33 79 -103 272 -24 66
-48 123 -54 128 -5 4 -19 5 -30 3 -25 -6 -50 8 -41 23 11 17 288 11 294 -6z
m-418 -824 c0 -17 4 -28 10 -24 6 3 10 2 10 -4 0 -5 -9 -9 -20 -8 -16 1 -20 8
-20 34 0 18 5 33 10 33 6 0 10 -14 10 -31z m392 1 c-4 -28 -22 -33 -22 -6 0 9
19 36 25 36 1 0 0 -13 -3 -30z m238 -1 c0 -17 4 -28 10 -24 6 3 10 2 10 -4 0
-5 -9 -9 -20 -8 -16 1 -20 8 -20 34 0 18 5 33 10 33 6 0 10 -14 10 -31z m331
1 c5 0 9 -5 9 -11 0 -5 -4 -8 -9 -4 -5 3 -12 -3 -14 -12 -3 -10 -5 0 -5 22 0
22 2 32 5 23 2 -10 9 -18 14 -18z m19 19 c0 -8 4 -8 13 0 11 8 13 5 9 -20 -2
-16 -5 -29 -6 -27 -1 2 -10 15 -19 31 -10 15 -13 27 -7 27 5 0 10 -5 10 -11z
m-1263 -46 c-3 -10 -5 -2 -5 17 0 19 2 27 5 18 2 -10 2 -26 0 -35z m55 17 c5
-32 -6 -41 -16 -14 -9 23 -7 44 3 44 5 0 11 -13 13 -30z m58 0 c0 -16 -4 -30
-8 -30 -5 0 -7 14 -4 30 2 17 6 30 8 30 2 0 4 -13 4 -30z m28 -17 c-13 -12
-14 -10 -10 18 4 27 6 29 14 14 7 -12 6 -21 -4 -32z m32 36 c0 -5 4 -8 9 -5 5
4 7 -3 4 -14 -3 -11 -10 -23 -16 -27 -6 -3 -7 -1 -3 5 4 6 2 21 -4 32 -7 13
-7 20 0 20 5 0 10 -5 10 -11z m163 -3 c3 -8 -1 -22 -8 -33 -13 -17 -14 -16
-15 15 0 33 13 43 23 18z m77 -33 c0 -7 -4 -13 -10 -13 -5 0 -9 3 -9 8 1 4 1
14 0 22 -1 13 -2 13 -11 0 -11 -17 -13 -9 -3 16 6 16 7 16 20 -2 7 -10 13 -24
13 -31z m27 0 c-3 -10 -5 -2 -5 17 0 19 2 27 5 18 2 -10 2 -26 0 -35z m31 15
c1 -28 -1 -30 -9 -15 -6 10 -8 25 -5 33 9 22 13 17 14 -18z m50 20 c7 -7 12
-19 12 -27 -1 -14 -3 -13 -14 1 -7 10 -16 15 -19 11 -4 -3 -7 1 -7 10 0 20 11
22 28 5z m93 0 c0 -10 2 -10 6 0 9 23 23 12 23 -18 0 -16 -3 -30 -7 -30 -12 0
-43 33 -43 47 0 17 20 17 21 1z m99 -13 c0 -8 -4 -17 -10 -20 -6 -4 -10 5 -10
20 0 15 4 24 10 20 6 -3 10 -12 10 -20z m17 -22 c-3 -10 -5 -2 -5 17 0 19 2
27 5 18 2 -10 2 -26 0 -35z m31 15 c1 -28 -1 -30 -9 -15 -6 10 -8 25 -5 33 9
22 13 17 14 -18z m29 -15 c-3 -10 -5 -2 -5 17 0 19 2 27 5 18 2 -10 2 -26 0
-35z m176 33 c3 -8 -1 -22 -8 -33 -13 -17 -14 -16 -15 15 0 33 13 43 23 18z
m77 -33 c0 -7 -4 -13 -10 -13 -5 0 -10 10 -10 23 0 18 -2 19 -10 7 -11 -17
-13 -9 -3 16 6 16 7 16 20 -2 7 -10 13 -24 13 -31z m27 0 c-3 -10 -5 -2 -5 17
0 19 2 27 5 18 2 -10 2 -26 0 -35z m31 15 c1 -28 -1 -30 -9 -15 -6 10 -8 25
-5 33 9 22 13 17 14 -18z m50 20 c7 -7 12 -19 12 -27 -1 -14 -3 -13 -14 1 -7
10 -16 15 -19 11 -4 -3 -7 1 -7 10 0 20 11 22 28 5z m172 -12 c0 -8 -6 -18
-13 -25 -11 -8 -13 -5 -9 19 4 29 22 33 22 6z m38 12 c6 9 9 2 9 -20 0 -18 -2
-25 -4 -15 -3 9 -8 17 -13 17 -5 0 -11 -8 -13 -17 -3 -10 -5 -2 -6 17 0 26 2
31 9 20 8 -12 12 -12 18 -2z m52 -18 c-4 -3 -10 -12 -13 -20 -3 -8 -6 0 -6 18
-1 28 1 31 13 20 8 -7 10 -15 6 -18z m60 -10 c0 -13 -1 -13 -10 0 -5 8 -10 22
-10 30 0 13 1 13 10 0 5 -8 10 -22 10 -30z m49 -2 c-14 -25 -16 -23 -11 13 3
21 7 27 13 18 4 -7 3 -21 -2 -31z m69 30 c6 9 9 2 9 -20 0 -18 -2 -25 -4 -15
-3 9 -8 17 -13 17 -5 0 -11 -8 -13 -17 -3 -10 -5 -2 -6 17 0 26 2 31 9 20 8
-12 12 -12 18 -2z m-1633 -11 c10 -8 14 -16 9 -19 -5 -3 -18 3 -28 13 -22 22
-9 26 19 6z m858 -12 c4 -8 3 -16 -1 -19 -4 -3 -9 4 -9 15 -2 23 3 25 10 4z
m-449 -13 c3 -5 -1 -9 -9 -9 -8 0 -12 4 -9 9 3 4 7 8 9 8 2 0 6 -4 9 -8z m630
0 c3 -5 -1 -9 -9 -9 -8 0 -12 4 -9 9 3 4 7 8 9 8 2 0 6 -4 9 -8z m436 -2 c0
-5 -5 -10 -11 -10 -5 0 -7 5 -4 10 3 6 8 10 11 10 2 0 4 -4 4 -10z"/>
<path d="M1903 3049 c-47 -23 -83 -82 -83 -136 0 -28 3 -31 70 -51 l70 -21 90
37 c89 36 91 38 86 66 -9 42 -53 96 -92 112 -47 20 -92 17 -141 -7z"/>
<path d="M2113 2837 c-67 -23 -124 -44 -127 -47 -8 -9 27 -440 36 -440 4 0 60
21 123 46 l115 46 0 56 c0 39 -5 61 -17 75 -13 13 -18 36 -18 72 0 36 5 59 18
72 21 24 26 164 5 162 -7 0 -68 -19 -135 -42z"/>
<path d="M1653 2809 c4 -30 7 -66 7 -81 0 -18 7 -29 20 -33 63 -20 81 -108 35
-163 -18 -21 -25 -42 -25 -70 0 -23 3 -43 8 -45 4 -3 67 -21 141 -41 l134 -35
-6 62 c-4 34 -12 134 -18 222 l-12 161 -131 34 c-72 18 -137 36 -145 38 -12 4
-13 -5 -8 -49z"/>
<path d="M2286 2694 c-18 -18 -22 -89 -5 -100 17 -10 59 17 66 44 7 29 -11 72
-31 72 -8 0 -22 -7 -30 -16z"/>
<path d="M1607 2663 c-10 -10 -8 -72 3 -92 21 -41 72 -32 84 13 8 34 -2 54
-35 71 -31 17 -42 18 -52 8z"/>
<path d="M2118 2281 l-86 -39 -113 28 -112 29 6 -62 c8 -79 43 -193 62 -201
17 -6 20 -2 30 44 12 60 63 101 138 113 63 10 67 5 67 -85 0 -87 10 -97 43
-40 33 56 80 252 60 252 -4 0 -47 -18 -95 -39z"/>
</g>
</svg>
