<svg width="60" height="auto" viewBox="0 0 89 96" fill="none"
     xmlns="http://www.w3.org/2000/svg">
<!--    <path opacity="0.1" fill-rule="evenodd" clip-rule="evenodd"-->
<!--          d="M44.412 95.5273C68.9401 95.5273 88.8241 75.4557 88.8241 50.6963C88.8241 25.9368 68.9401 5.86523 44.412 5.86523C19.8839 5.86523 0 25.9368 0 50.6963C0 75.4557 19.8839 95.5273 44.412 95.5273Z"-->
<!--          fill="black"/>-->
    <path fill-rule="evenodd" clip-rule="evenodd"
          d="M44.412 88.8241C68.9401 88.8241 88.8241 68.9401 88.8241 44.412C88.8241 19.8839 68.9401 0 44.412 0C19.8839 0 0 19.8839 0 44.412C0 68.9401 19.8839 88.8241 44.412 88.8241Z"
          fill="white"/>
    <path fill-rule="evenodd" clip-rule="evenodd"
          d="M73.3773 44.7992C73.3773 52.9427 70.801 60.7022 66.097 67.14C65.5312 67.9142 64.445 68.0833 63.6707 67.5175C62.8964 66.9518 62.7274 65.8655 63.2931 65.0912C67.5661 59.2433 69.9047 52.1999 69.9047 44.7992C69.9047 37.5071 67.6346 30.5612 63.4774 24.7617C62.9187 23.9823 63.0976 22.8976 63.877 22.3389C64.6564 21.7802 65.7411 21.9591 66.2997 22.7385C70.8764 29.1231 73.3773 36.7753 73.3773 44.7992ZM58.5655 62.2487C61.8556 57.5475 63.6515 51.9268 63.6515 46.0372C63.6515 40.0901 61.8203 34.4177 58.4702 29.6905C57.9158 28.9081 56.832 28.7233 56.0497 29.2778C55.2673 29.8322 55.0825 30.9159 55.637 31.6983C58.5738 35.8425 60.1789 40.8143 60.1789 46.0372C60.1789 51.2096 58.6048 56.1362 55.7204 60.2576C55.1706 61.0432 55.3617 62.1258 56.1474 62.6756C56.933 63.2255 58.0156 63.0343 58.5655 62.2487ZM27.5383 38.724L36.7153 30.6148C38.0064 29.474 40.0396 30.3906 40.0396 32.1135V59.1429C40.0396 60.8658 38.0064 61.7824 36.7153 60.6416L27.5391 52.533H19.1211C18.0165 52.533 17.1211 51.6376 17.1211 50.533V40.7246C17.1211 39.6201 18.0165 38.7247 19.1211 38.7247H27.5383V38.724ZM54.3279 46.0406C54.3279 49.9136 53.1269 53.6106 50.928 56.7007C50.3721 57.482 49.288 57.6646 48.5067 57.1087C47.7254 56.5527 47.5427 55.4686 48.0987 54.6873C49.8825 52.1805 50.8553 49.186 50.8553 46.0406C50.8553 42.8442 49.8505 39.8037 48.0123 37.2738C47.4486 36.4981 47.6206 35.4122 48.3964 34.8486C49.1721 34.2849 50.258 34.4569 50.8216 35.2326C53.0873 38.351 54.3279 42.1046 54.3279 46.0406Z"
          fill="#FFBF24"/>
</svg>
